<svg width="315" height="279" viewBox="0 0 315 279" fill="none" xmlns="http://www.w3.org/2000/svg">
<path d="M311.175 97.5328C306.3 94.1082 306.508 89.2502 306.563 84.6456C306.6 81.9122 306.572 77.7042 306.572 75.5842H306.513C306.513 71.3437 306.688 67.7389 306.471 63.4031C306.088 55.6773 302.625 50.3578 295.133 47.4987C292.578 46.5232 290.014 45.7764 287.427 44.892C244.681 30.2814 201.908 15.8398 159.2 1.10401C155.169 -0.286638 151.742 -0.416948 147.629 1.01903C116.819 11.7775 85.9106 22.3027 55.0311 32.8624C38.4473 38.5326 21.8428 44.1534 5.27087 49.8427C2.35607 50.844 -1.09314 51.9385 0.331788 56.079C1.75208 60.2067 4.87921 58.8917 7.92748 57.8462C55.5248 41.5172 103.147 25.2462 150.793 9.0333C152.593 8.51728 154.509 8.56618 156.281 9.17339C201.171 24.4839 246.042 39.8457 290.896 55.2585C295.849 56.9515 298.159 60.131 298.094 65.3341C297.998 73.0599 297.961 80.7857 298.122 88.5085C298.191 91.8867 297.624 94.3111 294.553 96.6253C288.769 100.981 288.603 109.36 293.522 114.564C298.069 119.38 306.075 119.611 310.941 115.066C315.929 110.415 316.676 101.4 311.175 97.5328Z" fill="white"/>
<path d="M286.143 64.9805C274.872 61.1855 263.633 57.3061 252.377 53.4813C220.717 42.7244 189.086 31.9046 157.358 21.3666C154.626 20.4611 151.03 20.766 148.226 21.6952C121.222 30.6448 94.2973 39.8355 67.3556 48.9844C51.6803 54.3065 36.0375 59.7135 20.3488 64.9954C17.1805 66.06 14.9944 68.1136 15.6726 71.2894C16.1199 73.4047 18.0061 76.373 19.8046 76.852C31.606 79.9722 43.5502 82.5691 55.4712 85.2222C57.9845 85.7846 60.5118 85.4988 61.0653 82.2817C61.6322 78.9679 59.4559 77.7281 56.6611 77.1059C51.8004 76.0229 46.9427 74.9241 42.0882 73.8096C38.574 72.9984 35.0738 72.1367 31.5689 71.3023C31.5782 70.9474 31.5829 70.5972 31.5921 70.2423C32.8697 69.7077 34.124 69.0906 35.4382 68.6456C73.4982 55.7692 111.572 42.9352 149.66 30.1436C152.029 29.4048 154.566 29.3996 156.938 30.1287C191.548 41.666 226.122 53.3121 260.659 65.067C265.503 66.709 270.307 68.4885 276.449 70.6739C273.904 71.4465 272.88 71.8261 271.828 72.0707C264.311 73.8219 256.729 75.3249 249.323 77.4587C247.623 77.9475 245.431 80.5836 245.421 82.2431C245.399 85.1975 248.188 85.7182 250.854 85.2989C251.652 85.1743 252.459 85.1006 253.239 84.9209C264.039 82.4143 274.84 79.9023 285.64 77.3851C288.743 76.664 290.953 75.1312 291.169 71.6515C291.395 67.9972 289.412 66.0812 286.143 64.9805Z" fill="white"/>
<path d="M235.036 126.077C233.389 124.572 232.356 122.512 232.135 120.293C231.785 113.232 231.997 106.138 231.992 99.0631C231.988 91.8224 231.872 84.5766 232.034 77.3406C232.131 73.2063 230.66 69.9377 227.087 68.1175C222.24 65.6525 217.31 63.1539 212.142 61.5676C194.195 56.0626 175.753 53.5471 156.983 53.3328C133.81 53.0676 110.991 55.4095 89.1227 63.4511C75.0063 68.6413 74.5961 69.6431 74.7806 84.4087C74.8265 88.4602 74.3333 91.3821 70.4043 94.0001C64.1645 98.1576 64.031 106.657 69.2839 112.137C73.8818 116.935 82.5381 116.861 87.085 111.982C91.7891 106.94 91.1109 98.4729 86.0383 93.7673C84.5258 92.3664 83.5574 89.96 83.1745 87.8679C82.6901 85.2174 83.2482 82.4016 83.0086 79.6867C82.7226 76.4465 84.0785 74.4048 86.9701 73.3448C92.0936 71.4597 97.1574 69.3078 102.419 67.9414C127.769 61.3677 153.549 59.3889 179.43 63.3805C192.37 65.3769 205.006 69.3454 217.744 72.5485C221.973 73.6085 223.825 76.1575 223.693 80.9512C223.328 93.9764 223.499 107.016 223.624 120.044C223.652 122.87 222.918 124.644 220.474 126.395C214.105 130.949 213.568 139.333 218.892 144.924C223.449 149.703 232.216 149.685 236.735 144.882C241.792 139.513 240.847 131.027 235.036 126.077Z" fill="white"/>
<path d="M161.207 133.484C166.082 128.054 164.8 119.716 158.708 114.775C157.159 113.376 156.197 111.443 156.014 109.364C155.692 102.782 155.95 96.1787 155.872 89.586C155.784 82.5524 152.856 79.649 145.832 79.6119C135.207 79.5604 124.586 79.5795 113.961 79.5934C105.374 79.6073 102.653 82.2439 102.634 90.7243C102.593 108.418 102.597 126.113 102.648 143.807C102.658 146.54 102.137 148.442 99.6232 150.264C93.0268 155.03 92.3878 162.948 97.6448 168.701C102.334 173.831 110.88 173.858 115.727 168.765C120.809 163.423 120.086 154.818 113.744 150.209C111.286 148.425 110.645 146.563 110.659 143.797C110.742 126.91 110.691 110.022 110.714 93.1296C110.719 91.5623 110.935 89.9955 111.088 87.979C122.695 87.979 133.934 87.8961 145.168 88.1402C146.017 88.1588 147.46 90.4863 147.515 91.7858C147.817 97.7294 147.813 103.685 147.501 109.628C147.248 111.7 146.242 113.608 144.674 114.988C138.593 120.113 137.6 128.285 142.751 133.685C143.943 134.941 145.382 135.937 146.978 136.612C148.573 137.287 150.291 137.625 152.023 137.606C153.755 137.588 155.465 137.212 157.045 136.502C158.625 135.793 160.042 134.765 161.207 133.484Z" fill="white"/>
<path d="M197.917 99.1331C197.913 97.5338 198.139 95.7085 197.456 94.409C196.76 93.0863 194.947 91.33 193.854 91.4824C192.392 91.6807 190.783 93.3032 189.934 94.7319C189.289 95.8197 189.695 97.5529 189.695 98.995C189.69 122.945 189.741 146.888 189.598 170.837C189.584 172.814 188.464 176.348 187.477 176.492C182.558 177.185 177.577 177.323 172.627 176.904C171.087 176.775 169.657 174.402 168.32 172.922C167.195 171.657 165.823 170.635 164.289 169.92C162.754 169.204 161.09 168.81 159.397 168.762C157.704 168.714 156.02 169.012 154.447 169.639C152.874 170.266 151.446 171.208 150.251 172.407C145.428 177.067 145.552 185.428 150.509 190.171C155.443 194.89 164.011 194.835 168.075 189.378C170.644 185.927 173.452 184.852 177.382 185.165C179.457 185.336 181.56 185.203 183.649 185.184C194.205 185.115 197.812 181.612 197.899 170.974C198.005 159.082 197.927 147.187 197.927 135.295C197.931 123.24 197.928 111.186 197.917 99.1331Z" fill="white"/>
<path d="M300.592 124.381C299.905 134.987 299.227 149.837 298.535 160.443H306.949C306.165 149.837 305.418 134.987 304.666 124.381H300.592Z" fill="white"/>
<path d="M27.0646 246.253L25.6816 241.719H18.737L17.354 246.253H13.002L19.7258 227.136H24.6635L31.4137 246.253H27.0646ZM24.7194 238.334C23.4422 234.229 22.7233 231.908 22.5626 231.371C22.4008 230.832 22.2861 230.406 22.2183 230.094C21.9301 231.203 21.1091 233.949 19.7554 238.334L24.7194 238.334Z" fill="white"/>
<path d="M41.6387 231.434C42.0887 231.426 42.5383 231.464 42.9803 231.548L42.6844 235.274C42.3001 235.181 41.9055 235.138 41.5101 235.145C40.242 235.145 39.2543 235.47 38.5471 236.121C37.8399 236.772 37.4858 237.683 37.485 238.856V246.266H33.5098V231.707H36.5202L37.1088 234.154H37.3031C37.7419 233.355 38.3717 232.678 39.1363 232.182C39.8783 231.691 40.749 231.431 41.6387 231.434Z" fill="white"/>
<path d="M51.7624 243.36C52.614 243.332 53.4568 243.178 54.2635 242.904V245.859C53.1071 246.335 51.8633 246.561 50.6135 246.524C49.0246 246.524 47.8672 246.122 47.1414 245.318C46.4156 244.514 46.0538 243.31 46.0563 241.704V234.685H44.1523V233.009L46.3417 231.68L47.4893 228.607H50.0315V231.707H54.1069V234.689H50.0321V241.708C50.0126 241.938 50.045 242.17 50.127 242.386C50.209 242.602 50.3385 242.797 50.5059 242.957C50.8621 243.239 51.3085 243.382 51.7624 243.36Z" fill="white"/>
<path d="M57.043 227.94C57.043 226.646 57.7649 225.999 59.2086 225.999C60.6476 225.999 61.3713 226.646 61.3713 227.94C61.3868 228.204 61.3466 228.468 61.2533 228.716C61.16 228.964 61.0157 229.189 60.8298 229.378C60.3765 229.753 59.7951 229.937 59.2083 229.892C57.7639 229.895 57.0421 229.245 57.043 227.94ZM61.1862 246.262H57.2136V231.705H61.1862V246.262Z" fill="white"/>
<path d="M73.3986 234.684H69.9617V246.262H65.9862V234.684H63.7969V232.77L65.9862 231.703V230.635C65.9862 228.977 66.3943 227.765 67.2104 227.001C68.0286 226.239 69.332 225.854 71.133 225.854C72.3803 225.834 73.6207 226.041 74.7935 226.465L73.7742 229.382C73.0589 229.146 72.3119 229.019 71.5585 229.006C71.3291 228.986 71.098 229.021 70.885 229.108C70.6719 229.196 70.483 229.333 70.3343 229.509C70.0704 229.882 69.9383 230.332 69.9588 230.789V231.703H73.3986V234.684ZM75.5114 227.939C75.5114 226.645 76.2324 225.998 77.6744 225.998C79.1164 225.998 79.8373 226.645 79.8371 227.939C79.8531 228.203 79.8134 228.467 79.7207 228.715C79.628 228.963 79.4842 229.188 79.2988 229.377C78.8455 229.752 78.2639 229.937 77.677 229.891C76.2324 229.894 75.5105 229.243 75.5114 227.939ZM79.6546 246.262H75.6791V231.704H79.6546V246.262Z" fill="white"/>
<path d="M89.7302 246.522C85.1956 246.522 82.9288 244.036 82.9297 239.063C82.9297 236.587 83.5467 234.697 84.7807 233.391C86.0146 232.084 87.7821 231.432 90.083 231.432C91.6507 231.406 93.203 231.744 94.6175 232.42L93.4463 235.493C92.8195 235.243 92.2368 235.037 91.6982 234.875C91.1745 234.716 90.6301 234.635 90.0827 234.634C88.017 234.634 86.9841 236.102 86.9841 239.038C86.9841 241.884 88.017 243.307 90.0827 243.307C90.8023 243.314 91.5187 243.21 92.2072 243.002C92.9012 242.777 93.5592 242.455 94.1611 242.043V245.442C93.5636 245.831 92.9052 246.118 92.2132 246.289C91.3973 246.462 90.5641 246.541 89.7302 246.522Z" fill="white"/>
<path d="M97.3613 227.94C97.3613 226.646 98.0832 225.999 99.527 225.999C100.966 225.999 101.69 226.646 101.69 227.94C101.705 228.204 101.665 228.468 101.572 228.716C101.479 228.964 101.334 229.189 101.148 229.378C100.695 229.753 100.114 229.938 99.527 229.892C98.0812 229.895 97.3594 229.245 97.3613 227.94ZM101.505 246.262H97.529V231.705H101.505V246.262Z" fill="white"/>
<path d="M114.921 246.271L114.15 244.292H114.046C113.504 245.029 112.798 245.629 111.983 246.044C111.104 246.401 110.159 246.567 109.211 246.532C107.816 246.532 106.712 246.133 105.91 245.333C105.107 244.533 104.703 243.398 104.703 241.921C104.703 240.378 105.245 239.239 106.328 238.504C107.41 237.769 109.042 237.364 111.221 237.288L113.746 237.212V236.573C113.746 235.097 112.991 234.359 111.48 234.359C110.315 234.359 108.946 234.711 107.375 235.415L106.06 232.73C107.783 231.843 109.698 231.391 111.636 231.416C113.59 231.416 115.088 231.841 116.13 232.692C117.171 233.543 117.692 234.836 117.692 236.57V246.271H114.921ZM113.747 239.528L112.208 239.581C111.054 239.614 110.195 239.822 109.63 240.206C109.35 240.398 109.125 240.66 108.976 240.966C108.828 241.271 108.761 241.61 108.783 241.949C108.783 243.07 109.425 243.63 110.71 243.632C111.113 243.652 111.516 243.591 111.895 243.455C112.275 243.318 112.623 243.107 112.92 242.835C113.198 242.56 113.415 242.231 113.557 241.868C113.699 241.505 113.764 241.116 113.747 240.726V239.528Z" fill="white"/>
<path d="M125.768 246.26H121.793V225.999H125.768L125.768 246.26Z" fill="white"/>
<path d="M137.172 246.253V227.216H141.208V246.253H137.172Z" fill="white"/>
<path d="M159.155 246.262H155.179V237.761C155.179 236.711 154.993 235.923 154.62 235.396C154.248 234.87 153.653 234.607 152.837 234.608C151.725 234.608 150.92 234.979 150.424 235.722C149.928 236.465 149.681 237.695 149.683 239.413V246.261H145.707V231.704H148.744L149.279 233.566H149.5C149.939 232.865 150.576 232.311 151.33 231.972C152.163 231.599 153.069 231.415 153.981 231.431C155.676 231.431 156.962 231.888 157.839 232.804C158.716 233.719 159.154 235.041 159.154 236.768V246.26L159.155 246.262Z" fill="white"/>
<path d="M169.38 243.36C170.231 243.332 171.074 243.178 171.881 242.904V245.859C170.724 246.335 169.481 246.561 168.231 246.524C166.642 246.524 165.484 246.122 164.759 245.318C164.033 244.514 163.671 243.31 163.673 241.704V234.685H161.77V233.009L163.959 231.68L165.106 228.607H167.646V231.707H171.723V234.689H167.646V241.708C167.627 241.938 167.66 242.17 167.742 242.386C167.825 242.603 167.955 242.797 168.123 242.957C168.479 243.239 168.926 243.382 169.38 243.36Z" fill="white"/>
<path d="M181.417 246.523C179.072 246.523 177.238 245.877 175.918 244.583C174.597 243.289 173.937 241.458 173.938 239.09C173.938 236.649 174.548 234.763 175.768 233.432C176.989 232.097 178.676 231.431 180.829 231.433C182.89 231.433 184.493 232.019 185.64 233.191C186.787 234.363 187.36 235.981 187.358 238.045V239.974H177.963C177.948 240.951 178.307 241.897 178.966 242.618C179.593 243.25 180.471 243.567 181.6 243.568C182.437 243.572 183.272 243.48 184.089 243.294C184.934 243.089 185.754 242.797 186.538 242.421V245.497C185.83 245.845 185.082 246.105 184.31 246.27C183.357 246.453 182.388 246.538 181.417 246.523ZM180.855 234.258C180.487 234.239 180.119 234.3 179.777 234.439C179.435 234.578 179.128 234.79 178.878 235.061C178.356 235.704 178.067 236.504 178.056 237.331H183.632C183.667 236.505 183.393 235.696 182.864 235.061C182.606 234.792 182.293 234.581 181.947 234.442C181.6 234.304 181.228 234.242 180.855 234.26V234.258Z" fill="white"/>
<path d="M194.563 246.26H190.588V225.999H194.563V246.26Z" fill="white"/>
<path d="M202.71 246.26H198.734V225.999H202.71V246.26Z" fill="white"/>
<path d="M206.707 227.94C206.707 226.646 207.429 225.999 208.873 225.999C210.316 225.999 211.037 226.646 211.035 227.94C211.052 228.204 211.012 228.469 210.918 228.717C210.825 228.964 210.68 229.19 210.494 229.378C210.041 229.753 209.459 229.938 208.872 229.892C207.428 229.895 206.706 229.245 206.707 227.94ZM210.85 246.262H206.878V231.705H210.85V246.262Z" fill="white"/>
<path d="M227.704 231.706V233.723L225.423 234.308C225.839 234.962 226.056 235.722 226.048 236.496C226.048 238.061 225.504 239.275 224.412 240.148C223.32 241.022 221.808 241.457 219.872 241.457L219.156 241.419L218.568 241.353C218.39 241.465 218.241 241.619 218.135 241.8C218.028 241.982 217.967 242.187 217.956 242.397C217.956 242.967 218.686 243.255 220.145 243.255H222.619C224.217 243.255 225.435 243.599 226.274 244.285C227.112 244.971 227.532 245.977 227.533 247.305C227.558 248.093 227.374 248.874 227 249.569C226.625 250.264 226.075 250.848 225.403 251.263C223.981 252.201 221.941 252.669 219.282 252.668C217.252 252.668 215.7 252.314 214.627 251.607C214.12 251.297 213.704 250.859 213.421 250.337C213.138 249.815 212.999 249.227 213.017 248.634C212.994 247.821 213.289 247.031 213.839 246.432C214.499 245.782 215.338 245.342 216.249 245.171C215.825 244.984 215.456 244.689 215.181 244.316C214.882 243.94 214.72 243.471 214.725 242.99C214.729 242.509 214.899 242.044 215.205 241.673C215.61 241.239 216.08 240.871 216.6 240.585C215.841 240.261 215.204 239.705 214.781 238.997C214.321 238.217 214.088 237.323 214.111 236.418C214.111 234.83 214.627 233.602 215.661 232.733C216.695 231.865 218.172 231.43 220.093 231.431C220.579 231.435 221.065 231.473 221.547 231.542C222.106 231.616 222.465 231.669 222.621 231.704L227.704 231.706ZM216.458 248.32C216.456 248.587 216.53 248.849 216.669 249.076C216.808 249.304 217.009 249.488 217.247 249.608C217.928 249.956 218.689 250.119 219.454 250.079C220.881 250.079 221.998 249.883 222.805 249.49C223.611 249.102 224.018 248.567 224.018 247.891C224.033 247.65 223.973 247.41 223.843 247.206C223.714 247.002 223.524 246.845 223.299 246.756C222.588 246.512 221.837 246.406 221.087 246.444H219.027C218.377 246.421 217.737 246.601 217.194 246.959C216.965 247.104 216.778 247.306 216.649 247.544C216.52 247.782 216.454 248.049 216.457 248.32H216.458ZM217.903 236.472C217.867 237.14 218.058 237.8 218.444 238.345C218.645 238.583 218.898 238.769 219.185 238.889C219.471 239.009 219.782 239.059 220.092 239.036C220.401 239.062 220.712 239.013 220.998 238.892C221.284 238.772 221.536 238.585 221.734 238.345C222.109 237.795 222.293 237.137 222.258 236.472C222.258 234.717 221.536 233.84 220.092 233.841C218.635 233.841 217.902 234.717 217.902 236.472H217.903Z" fill="white"/>
<path d="M236.683 246.523C234.338 246.523 232.504 245.876 231.184 244.582C229.863 243.289 229.203 241.458 229.203 239.091C229.203 236.65 229.814 234.764 231.036 233.433C232.255 232.098 233.942 231.432 236.098 231.434C238.158 231.434 239.761 232.02 240.906 233.192C242.051 234.364 242.624 235.982 242.627 238.045V239.974H233.232C233.215 240.951 233.573 241.897 234.232 242.618C234.859 243.25 235.737 243.566 236.866 243.567C237.703 243.572 238.539 243.48 239.355 243.294C240.2 243.089 241.02 242.796 241.803 242.42V245.496C241.096 245.845 240.348 246.105 239.576 246.269C238.623 246.453 237.654 246.538 236.683 246.523ZM236.124 234.258C235.755 234.238 235.387 234.3 235.044 234.438C234.702 234.577 234.395 234.79 234.144 235.061C233.622 235.704 233.333 236.503 233.322 237.331H238.898C238.934 236.505 238.66 235.695 238.13 235.061C237.872 234.791 237.56 234.58 237.214 234.442C236.868 234.304 236.496 234.241 236.124 234.259L236.124 234.258Z" fill="white"/>
<path d="M259.317 246.262H255.341V237.761C255.341 236.711 255.155 235.923 254.782 235.396C254.41 234.87 253.815 234.607 252.999 234.608C251.887 234.608 251.08 234.978 250.586 235.722C250.092 236.466 249.845 237.694 249.845 239.413V246.261H245.869V231.704H248.906L249.442 233.566H249.662C250.101 232.865 250.738 232.311 251.492 231.972C252.326 231.599 253.231 231.415 254.144 231.431C255.839 231.431 257.125 231.888 258.002 232.804C258.878 233.719 259.317 235.041 259.317 236.768V246.26V246.262Z" fill="white"/>
<path d="M269.318 246.522C264.786 246.522 262.52 244.036 262.518 239.063C262.518 236.587 263.135 234.697 264.369 233.391C265.603 232.084 267.37 231.432 269.671 231.432C271.239 231.406 272.791 231.744 274.205 232.42L273.034 235.493C272.407 235.243 271.826 235.037 271.289 234.876C270.766 234.716 270.221 234.635 269.674 234.634C267.605 234.634 266.571 236.102 266.572 239.038C266.572 241.884 267.606 243.308 269.674 243.308C270.392 243.313 271.108 243.21 271.795 243.002C272.49 242.778 273.148 242.455 273.749 242.043V245.442C273.153 245.831 272.495 246.118 271.804 246.289C270.987 246.462 270.153 246.54 269.318 246.522Z" fill="white"/>
<path d="M283.721 246.523C281.375 246.523 279.542 245.877 278.221 244.583C276.901 243.289 276.24 241.458 276.238 239.09C276.238 236.649 276.849 234.763 278.071 233.432C279.29 232.097 280.977 231.431 283.133 231.433C285.193 231.433 286.796 232.019 287.941 233.191C289.086 234.363 289.659 235.981 289.662 238.045V239.974H280.266C280.25 240.951 280.609 241.897 281.27 242.618C281.894 243.25 282.77 243.567 283.9 243.568C284.738 243.572 285.573 243.48 286.39 243.294C287.235 243.089 288.056 242.797 288.841 242.421V245.497C288.132 245.845 287.383 246.105 286.61 246.27C285.658 246.453 284.69 246.538 283.721 246.523ZM283.159 234.258C282.79 234.239 282.422 234.301 282.08 234.44C281.737 234.578 281.43 234.79 281.179 235.061C280.657 235.704 280.368 236.504 280.357 237.331H285.936C285.915 236.352 285.662 235.596 285.165 235.061C284.908 234.792 284.595 234.581 284.249 234.442C283.903 234.304 283.531 234.242 283.159 234.26V234.258Z" fill="white"/>
<path d="M26.3694 278.264H15.4004V259.229H26.3694V262.535H19.4407V266.716H25.891V270.021H19.4407V274.932H26.3694V278.264Z" fill="white"/>
<path d="M34.6481 278.529C33.8628 278.558 33.0827 278.39 32.3784 278.042C31.674 277.694 31.0675 277.176 30.6137 276.535C29.6366 275.206 29.1482 273.366 29.1484 271.014C29.1484 268.626 29.6457 266.766 30.6403 265.433C31.1081 264.788 31.7279 264.267 32.4449 263.919C33.1618 263.57 33.9538 263.403 34.7507 263.433C36.584 263.433 37.9827 264.146 38.9468 265.571H39.0764C38.8907 264.614 38.7902 263.641 38.7762 262.666V258.007H42.7639V278.268H39.7153L38.9472 276.377H38.7765C37.8731 277.812 36.497 278.529 34.6481 278.529ZM36.04 275.365C37.0594 275.365 37.8025 275.069 38.276 274.48C38.7495 273.89 39.0057 272.886 39.0501 271.472V271.043C39.0501 269.481 38.8097 268.362 38.329 267.685C37.8482 267.007 37.0635 266.668 35.9749 266.666C35.5618 266.654 35.1529 266.752 34.7904 266.951C34.4278 267.149 34.1246 267.44 33.9118 267.794C33.4203 268.547 33.1742 269.639 33.1733 271.07C33.1724 272.501 33.4206 273.575 33.9178 274.293C34.1498 274.638 34.4668 274.919 34.8385 275.106C35.2102 275.294 35.6239 275.383 36.04 275.365Z" fill="white"/>
<path d="M57.2465 278.264L56.7138 276.402H56.5053C56.0667 277.09 55.4368 277.635 54.6928 277.97C53.8542 278.35 52.9415 278.539 52.0208 278.523C50.3109 278.523 49.021 278.065 48.1511 277.149C47.2813 276.234 46.8468 274.916 46.8477 273.197V263.705H50.8232V272.209C50.8232 273.256 51.0105 274.043 51.3852 274.571C51.7557 275.096 52.3532 275.359 53.1684 275.359C54.2807 275.359 55.084 274.989 55.5784 274.248C56.0727 273.507 56.3209 272.275 56.3228 270.554V263.705H60.2954V278.262H57.2468L57.2465 278.264Z" fill="white"/>
<path d="M70.3685 278.538C65.834 278.538 63.5673 276.05 63.5684 271.075C63.5684 268.602 64.1853 266.712 65.4193 265.405C66.6533 264.099 68.4209 263.446 70.722 263.447C72.2897 263.421 73.842 263.759 75.2565 264.435L74.0853 267.508C73.4585 267.258 72.8758 267.052 72.3372 266.89C71.8132 266.732 71.269 266.651 70.7217 266.649C68.656 266.649 67.6231 268.117 67.6231 271.052C67.6231 273.899 68.656 275.322 70.7217 275.322C71.4413 275.328 72.1576 275.225 72.8462 275.016C73.5397 274.791 74.1976 274.468 74.8001 274.058V277.456C74.2026 277.845 73.5442 278.131 72.8522 278.303C72.0359 278.476 71.2026 278.554 70.3685 278.538Z" fill="white"/>
<path d="M87.4204 278.265L86.6526 276.283H86.5497C86.0066 277.02 85.2993 277.62 84.484 278.036C83.6063 278.394 82.6622 278.56 81.7149 278.524C80.3174 278.524 79.2139 278.124 78.4135 277.327C77.6072 276.527 77.2051 275.39 77.207 273.916C77.207 272.369 77.7475 271.23 78.8285 270.498C79.9114 269.763 81.5426 269.358 83.7221 269.283L86.2498 269.203V268.565C86.2498 267.089 85.4935 266.351 83.9809 266.351C82.8157 266.351 81.4474 266.701 79.8758 267.402L78.5605 264.721C80.2841 263.834 82.1985 263.383 84.1368 263.406C86.0906 263.406 87.5895 263.832 88.6331 264.682C89.6718 265.532 90.1927 266.825 90.1957 268.56V278.261L87.4204 278.265ZM86.2465 271.52L84.7076 271.573C83.5541 271.605 82.6948 271.817 82.1299 272.199C81.8493 272.391 81.6235 272.653 81.4749 272.959C81.3263 273.264 81.26 273.604 81.2825 273.943C81.2825 275.06 81.927 275.622 83.2098 275.622C83.6124 275.642 84.0149 275.582 84.3942 275.446C84.7735 275.309 85.1221 275.1 85.4198 274.828C85.6972 274.553 85.914 274.223 86.0564 273.86C86.1988 273.496 86.2637 273.107 86.2469 272.717L86.2465 271.52Z" fill="white"/>
<path d="M100.448 275.35C101.3 275.323 102.143 275.17 102.949 274.894V277.851C101.792 278.324 100.549 278.55 99.299 278.513C97.7099 278.513 96.5525 278.112 95.8269 277.31C95.1035 276.504 94.7418 275.3 94.7418 273.696V266.677H92.8379V264.998L95.0272 263.668L96.1748 260.596H98.7173V263.695H102.793V266.677H98.7177V273.696C98.6984 273.926 98.7309 274.158 98.8129 274.374C98.8949 274.59 99.0243 274.785 99.1915 274.945C99.5475 275.227 99.9939 275.371 100.448 275.35Z" fill="white"/>
<path d="M105.711 259.948C105.711 258.654 106.433 258.007 107.877 258.007C109.316 258.007 110.039 258.654 110.039 259.948C110.055 260.212 110.014 260.476 109.921 260.724C109.828 260.971 109.684 261.197 109.498 261.386C109.045 261.761 108.463 261.946 107.877 261.9C106.432 261.9 105.71 261.249 105.711 259.948ZM109.854 278.268H105.879V263.71H109.854V278.268Z" fill="white"/>
<path d="M127.262 270.976C127.262 273.346 126.636 275.198 125.384 276.533C124.133 277.868 122.391 278.536 120.158 278.538C118.865 278.565 117.589 278.247 116.459 277.618C115.392 277.007 114.534 276.088 113.996 274.983C113.4 273.732 113.105 272.358 113.137 270.972C113.137 268.593 113.758 266.744 115 265.426C116.241 264.108 117.987 263.448 120.237 263.447C121.529 263.42 122.806 263.735 123.937 264.359C125.004 264.962 125.862 265.875 126.4 266.976C126.998 268.223 127.293 269.593 127.262 270.976ZM117.189 270.976C117.189 272.414 117.426 273.503 117.898 274.243C118.371 274.983 119.141 275.351 120.209 275.348C121.271 275.348 122.033 274.984 122.495 274.248C122.963 273.516 123.196 272.424 123.195 270.973C123.195 269.535 122.96 268.455 122.489 267.732C122.018 267.01 121.25 266.649 120.185 266.65C119.123 266.65 118.357 267.009 117.89 267.726C117.422 268.444 117.188 269.527 117.189 270.976H117.189Z" fill="white"/>
<path d="M143.989 278.276H140.013V269.772C140.013 268.722 139.825 267.937 139.454 267.411C139.084 266.884 138.483 266.622 137.668 266.622C136.556 266.622 135.752 266.993 135.258 267.734C134.764 268.475 134.516 269.706 134.514 271.427V278.276H130.541V263.721H133.578L134.11 265.582H134.332C134.773 264.882 135.411 264.326 136.165 263.986C136.999 263.614 137.904 263.43 138.817 263.447C140.512 263.447 141.798 263.905 142.674 264.821C143.551 265.736 143.99 267.058 143.99 268.788L143.989 278.276Z" fill="white"/>
<path d="M159.313 278.264H155.338V259.229H166.258V262.535H159.313V267.445H165.775V270.739H159.313V278.264Z" fill="white"/>
<path d="M182.912 270.976C182.912 273.346 182.286 275.198 181.035 276.533C179.783 277.868 178.041 278.536 175.809 278.538C174.516 278.565 173.239 278.247 172.11 277.618C171.042 277.007 170.184 276.088 169.647 274.983C169.05 273.732 168.756 272.358 168.787 270.972C168.787 268.593 169.408 266.744 170.65 265.426C171.892 264.108 173.638 263.448 175.888 263.447C177.18 263.42 178.456 263.734 179.587 264.358C180.654 264.961 181.513 265.874 182.05 266.975C182.648 268.222 182.944 269.593 182.912 270.976ZM172.84 270.976C172.84 272.414 173.076 273.503 173.549 274.243C174.021 274.983 174.791 275.351 175.859 275.348C176.921 275.348 177.683 274.984 178.145 274.248C178.613 273.516 178.846 272.424 178.845 270.973C178.845 269.535 178.61 268.455 178.139 267.732C177.668 267.01 176.9 266.649 175.835 266.65C174.773 266.65 174.008 267.009 173.543 267.726C173.072 268.441 172.837 269.524 172.84 270.976Z" fill="white"/>
<path d="M196.505 278.264L195.969 276.402H195.76C195.322 277.09 194.692 277.635 193.948 277.97C193.11 278.35 192.198 278.539 191.279 278.523C189.566 278.523 188.276 278.065 187.409 277.149C186.538 276.235 186.104 274.917 186.105 273.197V263.705H190.078V272.209C190.078 273.256 190.265 274.043 190.64 274.571C191.011 275.096 191.608 275.359 192.423 275.359C193.536 275.359 194.339 274.989 194.833 274.248C195.328 273.507 195.576 272.275 195.578 270.554V263.705H199.55V278.262H196.505V278.264Z" fill="white"/>
<path d="M217.174 278.276H213.199V269.772C213.199 268.722 213.013 267.937 212.64 267.411C212.266 266.884 211.669 266.622 210.854 266.622C209.744 266.622 208.938 266.993 208.444 267.734C207.949 268.475 207.702 269.705 207.702 271.427V278.276H203.727V263.721H206.763L207.296 265.582H207.517C207.958 264.882 208.595 264.326 209.35 263.986C210.183 263.614 211.089 263.43 212.001 263.447C213.696 263.447 214.982 263.905 215.859 264.821C216.736 265.736 217.174 267.058 217.174 268.788V278.277V278.276Z" fill="white"/>
<path d="M225.875 278.529C225.089 278.557 224.31 278.39 223.605 278.042C222.901 277.694 222.294 277.176 221.84 276.536C220.863 275.206 220.375 273.367 220.375 271.016C220.375 268.628 220.873 266.768 221.87 265.435C222.337 264.789 222.956 264.269 223.673 263.92C224.389 263.571 225.181 263.404 225.978 263.435C227.814 263.435 229.209 264.147 230.177 265.573H230.306C230.119 264.616 230.019 263.643 230.006 262.668V258.007H233.993V278.268H230.945L230.176 276.377H230.006C229.103 277.812 227.726 278.529 225.875 278.529ZM227.27 275.365C228.285 275.365 229.029 275.069 229.503 274.48C229.976 273.89 230.233 272.886 230.277 271.472V271.043C230.277 269.481 230.037 268.362 229.556 267.685C229.076 267.007 228.291 266.668 227.202 266.666C226.789 266.654 226.381 266.752 226.018 266.95C225.656 267.148 225.353 267.439 225.139 267.792C224.648 268.545 224.403 269.637 224.404 271.068C224.405 272.499 224.652 273.573 225.145 274.291C225.377 274.637 225.695 274.918 226.067 275.106C226.439 275.294 226.853 275.383 227.27 275.365Z" fill="white"/>
<path d="M247.4 278.265L246.631 276.283H246.529C245.986 277.02 245.279 277.62 244.463 278.036C243.585 278.394 242.641 278.56 241.694 278.524C240.296 278.524 239.192 278.124 238.392 277.327C237.592 276.53 237.186 275.388 237.186 273.916C237.186 272.369 237.726 271.23 238.807 270.498C239.89 269.763 241.521 269.358 243.701 269.283L246.228 269.203V268.565C246.228 267.089 245.472 266.351 243.959 266.351C242.798 266.351 241.429 266.701 239.854 267.402L238.539 264.721C240.263 263.834 242.177 263.383 244.115 263.406C246.069 263.406 247.568 263.832 248.612 264.682C249.655 265.533 250.176 266.826 250.174 268.56V278.261L247.4 278.265ZM246.226 271.52L244.69 271.573C243.533 271.605 242.674 271.817 242.109 272.199C241.828 272.391 241.603 272.653 241.454 272.959C241.306 273.264 241.239 273.604 241.262 273.943C241.262 275.06 241.905 275.62 243.192 275.622C243.594 275.642 243.996 275.582 244.375 275.445C244.754 275.309 245.102 275.099 245.399 274.828C245.676 274.553 245.893 274.223 246.036 273.86C246.178 273.496 246.243 273.107 246.226 272.717L246.226 271.52Z" fill="white"/>
<path d="M260.397 275.35C261.25 275.323 262.094 275.17 262.901 274.894V277.851C261.744 278.324 260.5 278.549 259.251 278.513C257.659 278.513 256.502 278.112 255.779 277.31C255.055 276.504 254.692 275.3 254.69 273.696V266.677H252.789V264.998L254.975 263.668L256.123 260.596H258.666V263.695H262.743V266.677H258.666V273.696C258.646 273.927 258.679 274.159 258.761 274.375C258.844 274.591 258.974 274.786 259.142 274.945C259.497 275.227 259.943 275.371 260.397 275.35Z" fill="white"/>
<path d="M265.68 259.948C265.68 258.654 266.402 258.007 267.845 258.007C269.289 258.007 270.01 258.654 270.008 259.948C270.024 260.212 269.984 260.476 269.891 260.724C269.797 260.972 269.653 261.197 269.467 261.386C269.014 261.761 268.432 261.946 267.845 261.9C266.4 261.9 265.678 261.249 265.68 259.948ZM269.823 278.268H265.851V263.71H269.823V278.268Z" fill="white"/>
<path d="M287.218 270.976C287.218 273.346 286.592 275.198 285.341 276.533C284.089 277.868 282.348 278.536 280.118 278.538C278.824 278.565 277.546 278.247 276.416 277.618C275.349 277.007 274.492 276.089 273.956 274.983C273.359 273.732 273.063 272.358 273.094 270.972C273.094 268.593 273.715 266.744 274.957 265.426C276.199 264.108 277.945 263.448 280.195 263.447C281.487 263.42 282.764 263.734 283.896 264.358C284.962 264.962 285.82 265.874 286.356 266.975C286.956 268.222 287.252 269.593 287.218 270.976ZM277.146 270.976C277.146 272.414 277.382 273.503 277.855 274.243C278.327 274.983 279.098 275.351 280.168 275.348C281.227 275.348 281.989 274.984 282.454 274.248C282.919 273.513 283.152 272.422 283.152 270.973C283.152 269.535 282.917 268.455 282.448 267.732C281.979 267.01 281.21 266.649 280.141 266.65C279.082 266.65 278.318 267.009 277.849 267.726C277.38 268.444 277.146 269.527 277.146 270.976Z" fill="white"/>
<path d="M303.967 278.277H299.992V269.772C299.992 268.722 299.806 267.937 299.433 267.411C299.059 266.885 298.465 266.622 297.647 266.622C296.537 266.622 295.731 266.993 295.237 267.734C294.742 268.475 294.495 269.706 294.495 271.428V278.276H290.52V263.721H293.556L294.089 265.583H294.313C294.752 264.882 295.389 264.327 296.143 263.986C296.976 263.614 297.881 263.43 298.793 263.447C300.488 263.447 301.774 263.905 302.651 264.821C303.528 265.736 303.967 267.058 303.967 268.788L303.967 278.277Z" fill="white"/>
</svg>
