<svg width="221" height="35" viewBox="0 0 221 35" fill="none" xmlns="http://www.w3.org/2000/svg">
<path d="M19.4575 15.5253C18.2426 12.547 21.8864 4.05221 29.91 3.41942C38.4212 2.7476 45.3678 10.3346 45.3678 18.865C45.3678 27.3954 37.5637 34.3104 29.0265 34.3104C25.7462 34.3104 20.9436 33.2826 18.4419 31.5407L0 18.8651L11.6985 11.8353C11.6985 11.8353 8.96768 28.8756 23.7636 32.295C26.7001 32.9732 40.7672 32.4054 39.5527 19.3867C39.3835 17.575 35.0255 5.15541 19.4575 15.5253Z" fill="#363636"/>
<path d="M38.2873 19.5261C39.5023 22.5045 35.8582 30.9997 27.8346 31.6323C19.3239 32.3033 12.377 24.717 12.377 16.1864C12.377 7.6558 20.1806 0.741211 28.7181 0.741211C31.9987 0.741211 36.801 1.76898 39.3032 3.5108L57.7447 16.1864L46.0463 23.2171C46.0463 23.2171 48.7767 6.17664 33.9814 2.75687C31.0452 2.07786 16.978 2.64651 18.1923 15.6646C18.3614 17.4765 22.7189 29.8966 38.2873 19.5261Z" fill="#363636"/>
<path d="M110.502 28.1584C110.314 29.0118 110.046 30.5448 109.699 32.7577C108.137 33.0903 106.821 33.3145 105.751 33.4302C104.681 33.5459 103.603 33.6037 102.518 33.6037C100.624 33.6037 98.9242 33.4157 97.4201 33.0397C95.9304 32.6637 94.6215 31.9767 93.4934 30.9787C92.3653 29.9663 91.5336 28.7297 90.9985 27.269C90.4634 25.8082 90.1958 24.2751 90.1958 22.6697C90.1958 20.8908 90.5068 19.1697 91.1287 17.5065C91.7506 15.8288 92.6184 14.462 93.732 13.4062C94.8601 12.336 96.1401 11.5839 97.5719 11.15C99.0038 10.7016 100.501 10.4775 102.063 10.4775C103.538 10.4775 104.941 10.6655 106.271 11.0415C107.602 11.4031 108.716 12.0033 109.612 12.8422C110.524 13.681 111.218 14.6934 111.695 15.8794C112.187 17.0509 112.433 18.3598 112.433 19.8061C112.433 20.4858 112.36 21.1873 112.216 21.9104L96.3137 21.9321C96.2847 22.4673 96.2703 22.8939 96.2703 23.2121C96.2703 24.1811 96.4366 25.0706 96.7692 25.8805C97.1019 26.6904 97.5864 27.3774 98.2228 27.9415C98.8592 28.5056 99.6185 28.925 100.501 29.1998C101.383 29.4601 102.251 29.5903 103.104 29.5903C104.102 29.5903 105.179 29.4818 106.337 29.2649C107.508 29.0479 108.896 28.6791 110.502 28.1584ZM96.4872 19.3939L106.64 19.4156C106.64 18.7214 106.619 18.2079 106.575 17.8753C106.532 17.5426 106.431 17.1666 106.271 16.7472C106.127 16.3133 105.924 15.9372 105.664 15.619C105.404 15.2864 105.1 15.0116 104.753 14.7947C104.406 14.5777 104.001 14.4114 103.538 14.2957C103.09 14.18 102.605 14.1221 102.084 14.1221C101.477 14.1221 100.884 14.2161 100.305 14.4042C99.7414 14.5922 99.2207 14.867 98.7434 15.2285C98.2662 15.5901 97.8757 15.9951 97.5719 16.4434C97.2827 16.8918 97.0657 17.3257 96.9211 17.7451C96.7765 18.1501 96.6318 18.6997 96.4872 19.3939Z" fill="#363636"/>
<path d="M115.687 33.0831L116.316 22.7782L116.49 16.7905C116.519 15.5612 116.533 14.3246 116.533 13.0808C116.533 12.8639 116.519 12.1769 116.49 11.0198C117.835 11.0488 118.825 11.0632 119.462 11.0632C120.199 11.0632 121.176 11.0488 122.39 11.0198L122.282 14.0787C122.832 13.2977 123.302 12.7192 123.692 12.3432C124.083 11.9527 124.517 11.62 124.994 11.3452C125.486 11.0704 126.028 10.8607 126.621 10.7161C127.214 10.5715 127.821 10.4992 128.443 10.4992C129.022 10.4992 129.615 10.5715 130.222 10.7161C130.222 12.0612 130.287 13.7678 130.417 15.836C129.564 15.6046 128.79 15.4889 128.096 15.4889C127.257 15.4889 126.512 15.619 125.862 15.8794C125.225 16.1253 124.647 16.5085 124.126 17.0292C123.62 17.5354 123.2 18.1645 122.868 18.9166C122.593 19.524 122.39 20.3123 122.26 21.2813C122.145 22.0334 122.043 23.3206 121.957 25.1429C121.884 26.9652 121.848 28.7587 121.848 30.5231C121.848 31.2029 121.87 32.0562 121.913 33.0831C120.814 33.0542 119.809 33.0397 118.898 33.0397C118.001 33.0397 116.931 33.0542 115.687 33.0831Z" fill="#363636"/>
<path d="M132.392 32.6709L131.914 27.8981C133.332 28.4766 134.532 28.8816 135.516 29.113C136.499 29.3299 137.403 29.4384 138.227 29.4384C139.052 29.4384 139.746 29.3444 140.31 29.1564C140.874 28.9539 141.294 28.6646 141.568 28.2886C141.843 27.8981 141.981 27.4931 141.981 27.0737C141.981 26.8857 141.959 26.7121 141.916 26.553C141.887 26.394 141.822 26.2276 141.72 26.0541C141.634 25.8805 141.525 25.7214 141.395 25.5768C141.279 25.4177 141.113 25.2441 140.896 25.0561C140.679 24.8536 140.368 24.6005 139.963 24.2968L138.792 23.364C137.663 22.4817 136.803 21.7875 136.21 21.2813C135.617 20.7751 135.118 20.2617 134.713 19.741C134.308 19.2059 133.997 18.649 133.78 18.0705C133.578 17.4775 133.476 16.8773 133.476 16.2699C133.476 15.2141 133.795 14.2089 134.431 13.2544C135.082 12.2998 136.022 11.6056 137.251 11.1717C138.481 10.7233 139.927 10.4992 141.59 10.4992C143.485 10.4992 145.669 10.7233 148.142 11.1717L148.424 15.7058C146.746 15.0261 145.134 14.6862 143.586 14.6862C142.747 14.6862 142.01 14.773 141.373 14.9465C140.751 15.1056 140.303 15.3587 140.028 15.7058C139.753 16.0385 139.616 16.4145 139.616 16.8339C139.616 17.0798 139.659 17.3257 139.746 17.5715C139.833 17.803 139.985 18.0488 140.202 18.3092C140.419 18.5695 140.665 18.8154 140.939 19.0468C141.229 19.2782 141.822 19.7338 142.718 20.4135C143.615 21.0933 144.396 21.708 145.061 22.2575C145.741 22.8071 146.298 23.364 146.732 23.928C147.166 24.4776 147.498 25.0706 147.73 25.707C147.961 26.3433 148.077 26.9869 148.077 27.6378C148.077 28.7225 147.744 29.7277 147.079 30.6533C146.414 31.5789 145.408 32.3021 144.063 32.8227C142.718 33.3434 141.214 33.6037 139.551 33.6037C138.683 33.6037 137.627 33.5314 136.383 33.3868C135.14 33.2566 133.809 33.018 132.392 32.6709Z" fill="#363636"/>
<path d="M153.631 7.24499C153.688 5.75531 153.717 4.61273 153.717 3.81727V3.12305C155.034 3.15197 156.104 3.16644 156.928 3.16644C158.056 3.16644 159.105 3.15197 160.074 3.12305C160.031 3.48462 160.002 3.89682 159.987 4.35963L159.879 7.24499C158.779 7.21607 157.767 7.2016 156.841 7.2016C155.916 7.2016 154.846 7.21607 153.631 7.24499ZM152.459 33.0831C152.676 30.9136 152.828 29.0985 152.915 27.6378C153.059 25.3237 153.182 22.6553 153.284 19.6325C153.399 16.6098 153.479 13.7389 153.522 11.0198C154.94 11.0488 156.003 11.0632 156.711 11.0632C157.362 11.0632 158.418 11.0488 159.879 11.0198C159.676 13.5364 159.51 15.9372 159.38 18.2224C159.264 20.5075 159.177 23.1253 159.119 26.0758C159.061 29.0262 159.033 31.362 159.033 33.0831C157.716 33.0542 156.661 33.0397 155.865 33.0397C155.113 33.0397 153.978 33.0542 152.459 33.0831Z" fill="#363636"/>
<path d="M170.227 33.0831C169.272 30.0314 166.705 22.677 162.525 11.0198C163.798 11.0488 164.897 11.0632 165.823 11.0632C166.806 11.0632 167.812 11.0488 168.838 11.0198L173.915 27.5727L174.609 25.6853L179.491 13.2977C179.722 12.7192 180.011 11.9599 180.358 11.0198C181.544 11.0488 182.6 11.0632 183.526 11.0632C184.466 11.0632 185.536 11.0488 186.736 11.0198L183.2 18.678L178.08 30.2845L176.931 33.0831C175.629 33.0542 174.537 33.0397 173.655 33.0397C172.729 33.0397 171.586 33.0542 170.227 33.0831Z" fill="#363636"/>
<path d="M189.427 7.24499C189.484 5.75531 189.513 4.61273 189.513 3.81727V3.12305C190.83 3.15197 191.9 3.16644 192.724 3.16644C193.852 3.16644 194.901 3.15197 195.87 3.12305C195.826 3.48462 195.798 3.89682 195.783 4.35963L195.675 7.24499C194.575 7.21607 193.563 7.2016 192.637 7.2016C191.712 7.2016 190.641 7.21607 189.427 7.24499ZM188.255 33.0831C188.472 30.9136 188.624 29.0985 188.711 27.6378C188.855 25.3237 188.978 22.6553 189.079 19.6325C189.195 16.6098 189.275 13.7389 189.318 11.0198C190.735 11.0488 191.799 11.0632 192.507 11.0632C193.158 11.0632 194.214 11.0488 195.675 11.0198C195.472 13.5364 195.306 15.9372 195.176 18.2224C195.06 20.5075 194.973 23.1253 194.915 26.0758C194.857 29.0262 194.829 31.362 194.829 33.0831C193.512 33.0542 192.457 33.0397 191.661 33.0397C190.909 33.0397 189.774 33.0542 188.255 33.0831Z" fill="#363636"/>
<path d="M201.771 15.8577C201.973 14.8164 202.096 14.086 202.14 13.6665C202.197 13.2471 202.291 12.6108 202.422 11.7574C204.389 11.2946 206.124 10.9692 207.628 10.7812C209.132 10.5932 210.586 10.4992 211.989 10.4992C213.58 10.4992 215.041 10.6872 216.371 11.0632C217.702 11.4248 218.743 12.0105 219.495 12.8205C220.247 13.6304 220.623 14.7947 220.623 16.3133C220.623 17.1377 220.508 19.242 220.276 22.6264C220.045 25.9962 219.907 29.4818 219.864 33.0831C218.765 33.0542 217.752 33.0397 216.827 33.0397C215.945 33.0397 214.91 33.0542 213.724 33.0831C213.912 31.3331 214.064 29.3082 214.18 27.0086L214.462 21.6067C213.912 21.9683 213.493 22.2214 213.204 22.366C212.915 22.5107 212.589 22.648 212.228 22.7782C211.866 22.8939 211.23 23.0819 210.318 23.3423C209.407 23.5881 208.677 23.8051 208.127 23.9931C207.578 24.1811 207.079 24.3981 206.63 24.6439C206.196 24.8753 205.828 25.1429 205.524 25.4466C205.22 25.7359 204.996 26.0468 204.851 26.3795C204.721 26.6977 204.656 27.0448 204.656 27.4208C204.656 28.0283 204.83 28.5562 205.177 29.0045C205.538 29.4384 205.987 29.7421 206.522 29.9157C207.057 30.0892 207.686 30.176 208.409 30.176C208.872 30.176 209.357 30.1399 209.863 30.0675C210.384 29.9952 211.078 29.8144 211.946 29.5252C211.642 30.3496 211.287 31.5789 210.882 33.2132C209.856 33.3868 209.038 33.4953 208.431 33.5387C207.824 33.5821 207.259 33.6037 206.739 33.6037C204.916 33.6037 203.42 33.3579 202.248 32.8661C201.077 32.3744 200.209 31.5934 199.645 30.5231C199.095 29.4529 198.82 28.3754 198.82 27.2907C198.82 26.6688 198.929 26.0541 199.146 25.4466C199.363 24.8392 199.681 24.2824 200.1 23.7762C200.52 23.27 201.062 22.7854 201.727 22.3226C202.393 21.8454 203.354 21.3898 204.613 20.9559C205.871 20.5075 207.534 20.0592 209.603 19.6108C210.152 19.4951 210.723 19.3577 211.316 19.1986C211.909 19.0251 212.379 18.8588 212.727 18.6997C213.088 18.5406 213.399 18.3381 213.659 18.0922C213.92 17.8319 214.108 17.5643 214.223 17.2895C214.354 17.0147 214.419 16.7327 214.419 16.4434C214.419 15.8794 214.231 15.4021 213.855 15.0116C213.493 14.6211 213.016 14.3535 212.423 14.2089C211.844 14.0498 211.201 13.9703 210.492 13.9703C207.86 13.9703 204.953 14.5994 201.771 15.8577Z" fill="#363636"/>
<path d="M66.1611 32.4314L66.5681 27.0728L67.1334 15.2027L67.4047 6.58834C67.4198 5.80453 67.4273 5.01319 67.4273 4.2143C67.4273 3.62645 67.4198 2.74467 67.4047 1.56895C69.3341 1.5991 70.9017 1.61417 72.1075 1.61417C73.0722 1.61417 74.4138 1.59156 76.1321 1.54635C77.8505 1.50113 79.2146 1.47852 80.2245 1.47852C82.3046 1.47852 83.8346 1.62925 84.8143 1.93071C85.8544 2.26232 86.7663 2.78235 87.5501 3.49079C88.3339 4.19923 88.9293 5.05087 89.3363 6.0457C89.7885 7.16112 90.0146 8.35944 90.0146 9.64066C90.0146 11.5851 89.5247 13.3562 88.545 14.954C87.5803 16.5367 86.2387 17.7199 84.5204 18.5037C82.802 19.2875 80.8953 19.6794 78.8001 19.6794C77.7751 19.6794 76.6823 19.5739 75.5216 19.3629C75.19 17.7953 74.8132 16.3256 74.3911 14.954C75.3257 15.1499 76.2527 15.2479 77.1722 15.2479C78.4232 15.2479 79.5085 15.0595 80.428 14.6827C81.3475 14.3058 82.0785 13.6954 82.6212 12.8513C83.1638 11.9921 83.4351 11.0274 83.4351 9.9572C83.4351 9.32413 83.3221 8.74381 83.096 8.21624C82.8699 7.68868 82.5382 7.26663 82.1011 6.95009C81.6791 6.63356 81.2043 6.42253 80.6767 6.31702C80.1642 6.19643 79.4256 6.13614 78.4609 6.13614C77.6168 6.13614 76.7652 6.15121 75.906 6.18136C75.0468 6.21151 74.2856 6.22658 73.6224 6.22658C73.4415 9.18093 73.3059 12.0072 73.2154 14.7053L72.9441 23.3422C72.8537 26.4021 72.8084 28.648 72.8084 30.0799C72.8084 30.6226 72.816 31.4064 72.8311 32.4314L69.5526 32.3862C69.1306 32.3862 68.0001 32.4012 66.1611 32.4314Z" fill="#363636"/>
</svg>
